<svg width="100" height="100" viewBox="0 0 100 100" fill="none" xmlns="http://www.w3.org/2000/svg">
<g clip-path="url(#clip0_1209_12568)">
<path d="M99.9764 92.9056L92.1201 49.6221C92.0418 49.1901 91.7739 48.8159 91.3899 48.6024L71.616 37.6043C71.3594 37.4614 71.0717 37.4045 70.7891 37.4264L74.3865 83.8343L74.266 83.8882L97.9309 94.5049C98.1235 94.591 98.3282 94.6336 98.5319 94.6336C98.8543 94.6336 99.1739 94.5275 99.4366 94.3219C99.8659 93.9867 100.073 93.4414 99.9764 92.9056Z" fill="#28A248"/>
<path d="M49.9997 48.1189L29.776 37.5854C29.5336 37.4591 29.2649 37.4075 29.0002 37.4253C29.0703 37.421 29.1408 37.4214 29.2108 37.4268L25.6133 83.8347L49.3987 94.5055C49.5907 94.5914 49.7956 94.6342 49.9997 94.6342V48.1189Z" fill="#32BD56"/>
<path d="M29.211 37.4303C28.9284 37.4084 28.6407 37.4653 28.384 37.6081L8.60995 48.6061C8.22597 48.8196 7.958 49.1936 7.87968 49.6259L0.0236089 92.9094C-0.0736569 93.4449 0.134156 93.9902 0.563258 94.3258C0.826345 94.5314 1.14568 94.6375 1.46795 94.6375C1.67166 94.6375 1.87654 94.5951 2.06893 94.5088L25.6049 83.95L29.211 37.4303Z" fill="#56D777"/>
<path d="M70.7889 37.4258C70.5944 37.4408 70.402 37.4926 70.2237 37.5855L50 48.1188V94.6341C50 94.6341 50 94.6341 50.0002 94.6341C50.2043 94.6341 50.4094 94.5915 50.6012 94.5054L74.3866 83.8347L70.7889 37.4258Z" fill="#2FB652"/>
<path d="M5.49825 62.7414L3.90234 71.5342L27.534 59.0526L28.0827 51.9746L28.1737 50.8008L5.49825 62.7414Z" fill="#FFDB56"/>
<path d="M27.7473 56.3086L27.5346 59.0531L3.90291 71.5348L0.0236089 92.9085C-0.0736569 93.444 0.134156 93.9893 0.563258 94.3249C0.826345 94.5305 1.14568 94.6366 1.46795 94.6366C1.67166 94.6366 1.87654 94.5942 2.06893 94.5079L25.6049 83.9491L27.7473 56.3086Z" fill="#A8EEFC"/>
<path d="M50.0065 53.9225L28.1748 50.8008L27.5352 59.0526L50.0007 93.1696V80.7637L36.5949 59.6547L50.0065 61.2588V53.9225Z" fill="#FEB618"/>
<path d="M89.8315 47.7404L80.3324 42.457L71.3398 44.5582L71.4523 46.0106L71.8965 51.7399L89.8315 47.7404Z" fill="#FEB618"/>
<path d="M72.6977 62.025L71.8461 51.0389L71.3436 44.5547L50.0078 53.9203V61.2567L63.9446 55.1961L72.6977 62.025Z" fill="#FFDB56"/>
<path d="M99.9766 92.9077L98.0034 82.0354L71.8984 51.7383L72.6961 62.027L99.4676 94.2968C99.8747 93.9595 100.071 93.4298 99.9766 92.9077Z" fill="#FEB618"/>
<path d="M50.0938 5.36328C38.7729 5.36328 29.5625 14.566 29.5625 25.8778C29.5625 32.875 32.8846 40.3876 39.4367 48.2063C44.2491 53.9491 48.9959 57.6427 49.1957 57.7972C49.4602 58.0017 49.777 58.1038 50.094 58.1038C50.4108 58.1038 50.7278 58.0017 50.9922 57.7972C51.1918 57.6427 55.9389 53.9491 60.7512 48.2063C67.3034 40.3876 70.6255 32.8752 70.6255 25.8778C70.6251 14.566 61.4147 5.36328 50.0938 5.36328ZM57.6973 25.8776C57.6973 30.0733 54.293 33.4749 50.0938 33.4749C45.8946 33.4749 42.4903 30.0735 42.4903 25.8776C42.4903 21.6817 45.8946 18.2803 50.0938 18.2803C54.293 18.2803 57.6973 21.6819 57.6973 25.8776Z" fill="#FF4415"/>
<path d="M50.0936 5.36328C49.1963 5.36328 48.3125 5.42148 47.4453 5.53359C57.5201 6.83574 65.3285 15.4625 65.3285 25.8778C65.3285 32.875 62.0065 40.3876 55.4543 48.2063C52.3596 51.8993 49.2941 54.7429 47.4455 56.3448C48.4717 57.2339 49.1244 57.7421 49.1955 57.7972C49.46 58.0017 49.7768 58.1038 50.0938 58.1038C50.4106 58.1038 50.7275 58.0017 50.992 57.7972C51.1916 57.6427 55.9387 53.9491 60.751 48.2063C67.3032 40.3876 70.6252 32.8752 70.6252 25.8778C70.6248 14.566 61.4145 5.36328 50.0936 5.36328Z" fill="#E13E15"/>
<path d="M50.6012 94.5053L59.4459 90.5373L50 80.7617V94.634C50 94.634 50 94.634 50.0002 94.634C50.2043 94.634 50.4092 94.5916 50.6012 94.5053Z" fill="#FFBF33"/>
<path d="M92.1203 49.6238C92.042 49.1918 91.7741 48.8176 91.3901 48.6041L89.8334 47.7383L71.8984 51.7377L98.0032 82.0348L92.1203 49.6238Z" fill="#1EA4E9"/>
<path d="M49.9998 94.6343C50 94.6343 50 94.6343 49.9998 94.6343V93.1678L27.5346 59.0508L25.6133 83.835L49.3987 94.5057C49.5907 94.5919 49.7955 94.6343 49.9998 94.6343Z" fill="#1EA4E9"/>
</g>
<defs>
<clipPath id="clip0_1209_12568">
<rect width="100" height="100" fill="white"/>
</clipPath>
</defs>
</svg>
