<svg width="100" height="100" viewBox="0 0 100 100" fill="none" xmlns="http://www.w3.org/2000/svg">
<g clip-path="url(#clip0_1209_12534)">
<path d="M84.3734 4.02422V95.976C84.3734 98.1992 82.5727 100 80.3492 100H12.6531C10.4299 100 8.62891 98.1994 8.62891 95.976V4.02422C8.62891 1.80078 10.4297 0 12.6531 0H29.3051V5.825C29.3051 6.9377 30.2064 7.83711 31.3172 7.83711H61.8865C62.9973 7.83711 63.8986 6.9377 63.8986 5.825V0H80.3494C82.5725 0 84.3734 1.80078 84.3734 4.02422Z" fill="#FEB618"/>
<path d="M84.3765 4.02422V95.976C84.3765 98.1992 82.5738 100 80.3523 100H76.3906C78.6119 100 80.4148 98.1994 80.4148 95.976V4.02422C80.4146 1.80078 78.6119 0 76.3906 0H80.3523C82.5736 0 84.3765 1.80078 84.3765 4.02422Z" fill="#FB9927"/>
<path d="M84.3756 22.9189V45.6674C82.6492 46.5426 80.6975 47.0355 78.6291 47.0355C71.593 47.0355 65.8867 41.3293 65.8867 34.2932C65.8867 27.2549 71.593 21.5508 78.6291 21.5508C80.6975 21.5508 82.6492 22.0437 84.3756 22.9189Z" fill="#FB9927"/>
<path d="M77.84 7.97129V91.8928C77.84 92.935 76.9949 93.7801 75.9508 93.7801H17.0555C16.0111 93.7801 15.1641 92.935 15.1641 91.8928V7.97129C15.1641 6.9291 16.0111 6.08203 17.0555 6.08203H29.323C29.4479 7.07402 30.2949 7.83867 31.3189 7.83867H61.8883C62.9125 7.83867 63.7596 7.07402 63.8842 6.08203H75.9506C76.9949 6.08203 77.84 6.9291 77.84 7.97129Z" fill="#F8F3F1"/>
<path d="M26.8828 6.08203V11.6455C26.8828 12.7562 27.7842 13.6576 28.8949 13.6576H30.0377V16.3537C30.0377 18.9312 32.1342 21.0277 34.7117 21.0277H58.2893C60.8668 21.0277 62.9633 18.9312 62.9633 16.3537V13.6574H64.106C65.2168 13.6574 66.1182 12.7561 66.1182 11.6453V6.08203H26.8828ZM59.9451 16.3537C59.9451 17.2672 59.2027 18.0096 58.2893 18.0096H34.7117C33.7982 18.0096 33.0559 17.2672 33.0559 16.3537V13.6574H59.9451V16.3537Z" fill="#EFE2DD"/>
<path d="M77.8399 7.9709V91.8918C77.8399 92.9344 76.9936 93.7807 75.951 93.7807H71.5781C72.6207 93.7807 73.467 92.9344 73.467 91.8918V7.9709C73.467 6.92832 72.6207 6.08203 71.5781 6.08203H75.9508C76.9936 6.08203 77.8399 6.92813 77.8399 7.9709Z" fill="#EFE2DD"/>
<path d="M70.867 28.2367H22.134C21.3006 28.2367 20.625 27.5611 20.625 26.7277C20.625 25.8943 21.3006 25.2188 22.134 25.2188H70.867C71.7004 25.2188 72.376 25.8943 72.376 26.7277C72.376 27.5611 71.7004 28.2367 70.867 28.2367Z" fill="#EFE2DD"/>
<path d="M23.4023 86.5695C22.6048 86.5695 21.9386 85.9445 21.8966 85.139C21.8533 84.3068 22.4927 83.5969 23.3251 83.5535C24.422 83.4963 25.5021 83.2369 26.5163 82.8125C26.4773 82.4154 26.4886 82.0057 26.5523 81.5916C26.9316 79.1185 28.1441 76.7933 29.9663 75.0439C31.7003 73.3795 33.3335 73.6849 34.2839 74.5264C35.1572 75.2996 35.488 76.5293 35.1267 77.6592C34.4163 79.8805 33.0671 81.8408 31.3218 83.3541C31.7661 83.1855 32.1536 82.9418 32.2913 82.8508C33.0583 82.3432 34.2042 81.717 35.2966 82.1389C35.5945 82.2539 36.0855 82.5316 36.3784 83.1662C36.4921 83.135 36.6288 83.0848 36.7704 83.0109C37.6095 82.5736 38.4124 82.0539 39.1574 81.4664C39.8538 80.9174 40.7773 80.8234 41.5675 81.2215C42.2204 81.5506 42.6601 82.1502 42.7839 82.8484C43.482 82.4822 44.1353 82.0348 44.7318 81.5135C45.5386 80.8082 46.738 80.7631 47.5835 81.4064C50.0556 83.2863 53.9298 82.9422 57.3669 82.4721C58.1937 82.3588 58.9536 82.9369 59.0665 83.7627C59.1794 84.5885 58.6017 85.3494 57.7759 85.4623C53.9364 85.9879 49.5956 86.3512 46.2622 84.1662C45.421 84.8369 44.5019 85.4004 43.5228 85.8455C43.2392 85.9746 42.5749 86.2769 41.7976 86.1271C40.98 85.9701 40.3407 85.384 40.022 84.5736C39.4251 84.9816 38.8038 85.3541 38.165 85.6871C37.7462 85.9055 36.2786 86.5728 34.9777 85.9973C34.614 85.8363 34.3064 85.5971 34.0683 85.2951C34.0329 85.3176 33.9956 85.3416 33.9566 85.3676C31.6536 86.8916 29.3349 86.933 27.8394 85.5406C26.4693 86.1299 24.9954 86.4887 23.4818 86.5676C23.4554 86.5689 23.4286 86.5695 23.4023 86.5695ZM39.8019 83.2391C39.8017 83.2408 39.8017 83.2426 39.8017 83.2443C39.8017 83.242 39.8019 83.2402 39.8019 83.2391ZM32.0964 77.1832C32.0833 77.1953 32.0699 77.208 32.0562 77.2211C31.0978 78.1412 30.3679 79.2752 29.9261 80.5092C30.871 79.5545 31.6245 78.4228 32.0964 77.1832Z" fill="#EFE2DD"/>
<path d="M38.3107 48.4281H38.1066C37.2732 48.4281 36.5977 47.7525 36.5977 46.9191C36.5977 46.0857 37.2732 45.4102 38.1066 45.4102H38.3107C39.1441 45.4102 39.8197 46.0857 39.8197 46.9191C39.8197 47.7525 39.1441 48.4281 38.3107 48.4281Z" fill="#EFE2DD"/>
<path d="M43.0881 48.4281H42.884C42.0506 48.4281 41.375 47.7525 41.375 46.9191C41.375 46.0857 42.0506 45.4102 42.884 45.4102H43.0881C43.9215 45.4102 44.5971 46.0857 44.5971 46.9191C44.5971 47.7525 43.9215 48.4281 43.0881 48.4281Z" fill="#EFE2DD"/>
<path d="M47.8615 48.4281H47.6574C46.824 48.4281 46.1484 47.7525 46.1484 46.9191C46.1484 46.0857 46.824 45.4102 47.6574 45.4102H47.8615C48.6949 45.4102 49.3705 46.0857 49.3705 46.9191C49.3705 47.7525 48.6949 48.4281 47.8615 48.4281Z" fill="#EFE2DD"/>
<path d="M52.6389 48.4281H52.4348C51.6014 48.4281 50.9258 47.7525 50.9258 46.9191C50.9258 46.0857 51.6014 45.4102 52.4348 45.4102H52.6389C53.4723 45.4102 54.1478 46.0857 54.1478 46.9191C54.1478 47.7525 53.4723 48.4281 52.6389 48.4281Z" fill="#EFE2DD"/>
<path d="M70.4242 42.5102H37.5598C36.7264 42.5102 36.0508 41.8346 36.0508 41.0012C36.0508 40.1678 36.7264 39.4922 37.5598 39.4922H70.4242C71.2576 39.4922 71.9332 40.1678 71.9332 41.0012C71.9334 41.8346 71.2576 42.5102 70.4242 42.5102Z" fill="#EFE2DD"/>
<path d="M46.4178 36.8422H37.5598C36.7264 36.8422 36.0508 36.1666 36.0508 35.3332C36.0508 34.4998 36.7264 33.8242 37.5598 33.8242H46.4178C47.2512 33.8242 47.9268 34.4998 47.9268 35.3332C47.9268 36.1666 47.2512 36.8422 46.4178 36.8422Z" fill="#EFE2DD"/>
<path d="M38.3107 68.5922H38.1066C37.2732 68.5922 36.5977 67.9166 36.5977 67.0832C36.5977 66.2498 37.2732 65.5742 38.1066 65.5742H38.3107C39.1441 65.5742 39.8197 66.2498 39.8197 67.0832C39.8199 67.9166 39.1441 68.5922 38.3107 68.5922Z" fill="#EFE2DD"/>
<path d="M43.0881 68.5922H42.884C42.0506 68.5922 41.375 67.9166 41.375 67.0832C41.375 66.2498 42.0506 65.5742 42.884 65.5742H43.0881C43.9215 65.5742 44.5971 66.2498 44.5971 67.0832C44.5971 67.9166 43.9215 68.5922 43.0881 68.5922Z" fill="#EFE2DD"/>
<path d="M47.8615 68.5922H47.6574C46.824 68.5922 46.1484 67.9166 46.1484 67.0832C46.1484 66.2498 46.824 65.5742 47.6574 65.5742H47.8615C48.6949 65.5742 49.3705 66.2498 49.3705 67.0832C49.3707 67.9166 48.6949 68.5922 47.8615 68.5922Z" fill="#EFE2DD"/>
<path d="M52.6389 68.5922H52.4348C51.6014 68.5922 50.9258 67.9166 50.9258 67.0832C50.9258 66.2498 51.6014 65.5742 52.4348 65.5742H52.6389C53.4723 65.5742 54.1478 66.2498 54.1478 67.0832C54.1478 67.9166 53.4723 68.5922 52.6389 68.5922Z" fill="#EFE2DD"/>
<path d="M70.4242 62.6703H37.5598C36.7264 62.6703 36.0508 61.9947 36.0508 61.1613C36.0508 60.3279 36.7264 59.6523 37.5598 59.6523H70.4242C71.2576 59.6523 71.9332 60.3279 71.9332 61.1613C71.9334 61.9947 71.2576 62.6703 70.4242 62.6703Z" fill="#EFE2DD"/>
<path d="M46.4178 57.0063H37.5598C36.7264 57.0063 36.0508 56.3307 36.0508 55.4973C36.0508 54.6639 36.7264 53.9883 37.5598 53.9883H46.4178C47.2512 53.9883 47.9268 54.6639 47.9268 55.4973C47.9268 56.3307 47.2512 57.0063 46.4178 57.0063Z" fill="#EFE2DD"/>
<path d="M58.2914 19.216H34.7133C32.1359 19.216 30.0391 17.1193 30.0391 14.5418V9.43086C30.0391 8.59746 30.7146 7.92188 31.548 7.92188C32.3814 7.92188 33.057 8.59746 33.057 9.43086V14.542C33.057 15.4551 33.8 16.198 34.7131 16.198H58.2912C59.2043 16.198 59.9473 15.4551 59.9473 14.542V9.43086C59.9473 8.59746 60.6229 7.92188 61.4563 7.92188C62.2897 7.92188 62.9652 8.59746 62.9652 9.43086V14.542C62.9654 17.1193 60.8686 19.216 58.2914 19.216Z" fill="#FCA62F"/>
<path d="M64.1062 10.6373H28.8949C27.7836 10.6373 26.8828 9.73652 26.8828 8.6252V0H66.1181V8.6252C66.1181 9.73633 65.2174 10.6373 64.1062 10.6373Z" fill="#12C65A"/>
<path d="M66.1184 0V8.62578C66.1184 9.73652 65.217 10.6379 64.1062 10.6379H60.1445C61.2553 10.6379 62.1566 9.73652 62.1566 8.62578V0H66.1184Z" fill="#0FAD4E"/>
<path d="M34.0584 6.82656H33.8645C33.0311 6.82656 32.3555 6.15098 32.3555 5.31758C32.3555 4.48418 33.0311 3.80859 33.8645 3.80859H34.0584C34.8918 3.80859 35.5674 4.48418 35.5674 5.31758C35.5674 6.15098 34.8918 6.82656 34.0584 6.82656Z" fill="white"/>
<path d="M59.1404 6.82656H58.9465C58.1131 6.82656 57.4375 6.15098 57.4375 5.31758C57.4375 4.48418 58.1131 3.80859 58.9465 3.80859H59.1404C59.9738 3.80859 60.6494 4.48418 60.6494 5.31758C60.6494 6.15098 59.9738 6.82656 59.1404 6.82656Z" fill="white"/>
<path d="M78.6287 43.4918C85.6659 43.4918 91.3707 37.787 91.3707 30.7498C91.3707 23.7126 85.6659 18.0078 78.6287 18.0078C71.5915 18.0078 65.8867 23.7126 65.8867 30.7498C65.8867 37.787 71.5915 43.4918 78.6287 43.4918Z" fill="#12C65A"/>
<path d="M91.3701 30.7504C91.3701 37.7865 85.6658 43.4928 78.6277 43.4928C77.9617 43.4928 77.3078 43.4424 76.668 43.344C82.7746 42.4002 87.4506 37.1207 87.4506 30.7504C87.4506 24.3781 82.7746 19.1004 76.668 18.1588C77.3078 18.0582 77.9617 18.0078 78.6277 18.0078C85.6658 18.0078 91.3701 23.7121 91.3701 30.7504Z" fill="#0FAD4E"/>
<path d="M75.8487 36.2853C75.4626 36.2853 75.0763 36.1378 74.7817 35.8433L72.4343 33.4959C71.8448 32.9066 71.8448 31.9511 72.4343 31.3617C73.0235 30.7724 73.979 30.7724 74.5685 31.3617L75.8487 32.6419L82.83 25.6607C83.4192 25.0714 84.3747 25.0714 84.9642 25.6607C85.5536 26.25 85.5536 27.2054 84.9642 27.7949L76.9159 35.8431C76.621 36.1378 76.2349 36.2853 75.8487 36.2853Z" fill="white"/>
<path d="M29.8762 43.1791H24.0412C23.4855 43.1791 23.0352 42.7287 23.0352 42.1731V36.3381C23.0352 35.7824 23.4855 35.332 24.0412 35.332H29.8762C30.4318 35.332 30.8822 35.7824 30.8822 36.3381V42.1731C30.8822 42.7285 30.4318 43.1791 29.8762 43.1791Z" fill="#B5CCBE"/>
<path d="M29.8762 63.3432H24.0412C23.4855 63.3432 23.0352 62.8928 23.0352 62.3371V56.5021C23.0352 55.9465 23.4855 55.4961 24.0412 55.4961H29.8762C30.4318 55.4961 30.8822 55.9465 30.8822 56.5021V62.3371C30.8822 62.8928 30.4318 63.3432 29.8762 63.3432Z" fill="#B5CCBE"/>
</g>
<defs>
<clipPath id="clip0_1209_12534">
<rect width="100" height="100" fill="white"/>
</clipPath>
</defs>
</svg>
