<svg width="129" height="100" viewBox="0 0 129 100" fill="none" xmlns="http://www.w3.org/2000/svg">
<path d="M1.29893 97.7746C1.89628 98.5213 2.6654 99.1124 3.54066 99.4974C4.41593 99.8825 5.37135 100.05 6.32542 99.9859C7.27948 99.9217 8.20386 99.6277 9.01967 99.1289C9.83549 98.6301 10.5185 97.9413 11.0105 97.1214L19.9275 82.2598L20.0516 82.1853C23.4787 80.1291 27.319 78.8583 31.2962 78.4645C35.2733 78.0706 39.2883 78.5636 43.0521 79.9078H43.0521C55.3634 84.3047 68.7934 84.4476 81.1955 80.3135L81.1955 80.3135C89.6402 77.4986 97.2663 72.6569 103.406 66.2121C109.547 59.7674 114.014 51.9159 116.417 43.3449L128.569 0L114.669 7.90638C107.864 11.7773 100.333 14.2015 92.5478 15.0271C84.7625 15.8527 76.8905 15.062 69.4248 12.7044L69.4248 12.7044C63.7265 10.9049 57.678 10.5083 51.7936 11.5481C45.9091 12.588 40.3628 15.0336 35.6264 18.677L35.6264 18.677C31.3964 21.9309 27.918 26.0589 25.4286 30.7794C22.9391 35.4999 21.4972 40.7019 21.2012 46.0304L20.2378 63.3707C20.0331 67.0557 19.076 70.6597 17.4255 73.9607L15.4931 77.8254L2.02426 89.6107C0.875178 90.6161 0.158394 92.0262 0.0232712 93.5471C-0.111851 95.068 0.34511 96.5823 1.29893 97.7746Z" fill="#A0CC00"/>
<path d="M68.5986 66.8674C68.2526 67.2814 67.7618 67.5479 67.2262 67.6128C66.6905 67.6777 66.1503 67.5361 65.7154 67.2167C61.9559 64.4751 57.628 62.6141 53.0519 61.7714C48.4759 60.9287 43.7689 61.126 39.2794 62.3486L29.3923 65.0416C29.1236 65.1148 28.8431 65.1343 28.5668 65.0991C28.2905 65.0638 28.0238 64.9745 27.7821 64.8361C27.5403 64.6978 27.3282 64.5132 27.1578 64.2928C26.9875 64.0725 26.8622 63.8208 26.7891 63.552L26.7383 63.365C26.5909 62.8226 26.6649 62.2438 26.9441 61.7559C27.2232 61.268 27.6847 60.9109 28.2271 60.7632L38.1127 58.0707C43.2485 56.6719 48.6333 56.4471 53.8679 57.413C59.1024 58.3789 64.0524 60.5108 68.3507 63.6504C68.584 63.8219 68.7798 64.0393 68.9258 64.2893C69.0719 64.5393 69.1653 64.8166 69.2001 65.104C69.235 65.3915 69.2106 65.683 69.1285 65.9607C69.0464 66.2383 68.9083 66.4963 68.7227 66.7185L68.5986 66.8674Z" fill="#85B200"/>
<path d="M93.0224 51.3396C92.7346 51.8028 92.2788 52.1369 91.7504 52.2719C91.222 52.407 90.6619 52.3326 90.1871 52.0642C79.6216 46.0137 67.2187 44.005 55.2835 46.4112L48.546 47.7588C48.5011 47.7678 48.4564 47.7782 48.4121 47.7901L42.0913 49.4869C41.5482 49.6326 40.9695 49.5567 40.4823 49.2758C39.9952 48.9949 39.6397 48.5319 39.4939 47.9888L39.4436 47.8015C39.3714 47.5326 39.3529 47.2521 39.3891 46.976C39.4253 46.7 39.5156 46.4337 39.6547 46.1925C39.7938 45.9513 39.979 45.7399 40.1998 45.5703C40.4207 45.4007 40.6727 45.2762 40.9416 45.2041L47.332 43.4886L47.6053 43.4247L54.4139 42.0629C67.3903 39.4465 80.8753 41.6276 92.3652 48.2014C92.6149 48.3424 92.8334 48.5325 93.0076 48.7601C93.1819 48.9878 93.3084 49.2484 93.3794 49.5261C93.4503 49.8039 93.4644 50.0932 93.4208 50.3765C93.3771 50.6599 93.2766 50.9315 93.1252 51.175L93.0224 51.3396Z" fill="#85B200"/>
<path d="M99.5347 41.5318C97.2139 41.5312 94.8961 41.3658 92.5987 41.0368L86.1283 40.1125L73.5186 38.2091C72.9626 38.1251 72.4627 37.8238 72.1289 37.3713C71.7951 36.9188 71.6547 36.3522 71.7386 35.7962L71.7675 35.6046C71.8091 35.3293 71.9044 35.0648 72.0482 34.8264C72.1919 34.5879 72.3813 34.3801 72.6053 34.2148C72.8294 34.0495 73.0838 33.93 73.3541 33.863C73.6243 33.7961 73.9051 33.783 74.1805 33.8245L86.7727 35.7252L93.2258 36.6468C98.2499 37.3697 103.361 37.222 108.335 36.21C108.868 36.1047 109.421 36.2087 109.879 36.5004C110.337 36.792 110.665 37.249 110.795 37.7763L110.842 37.9638C110.911 38.2428 110.923 38.5329 110.877 38.8166C110.831 39.1002 110.728 39.3716 110.574 39.6143C110.42 39.857 110.218 40.066 109.981 40.2285C109.744 40.3911 109.477 40.5039 109.195 40.5602C106.016 41.2059 102.779 41.5314 99.5347 41.5318Z" fill="#85B200"/>
<path d="M34.6011 51.2753C34.1315 51.5835 33.5589 51.6928 33.0089 51.5792C32.4589 51.4656 31.9764 51.1384 31.6674 50.6695L30.8407 49.4152C28.4647 45.8768 27.5567 41.5536 28.3084 37.3584C28.362 37.0585 28.4796 36.7737 28.653 36.5234C28.8265 36.273 29.0518 36.0629 29.3136 35.9073C29.5754 35.7517 29.8677 35.6542 30.1706 35.6216C30.4734 35.589 30.7797 35.6219 31.0687 35.7181L31.254 35.7799C31.7394 35.9454 32.1491 36.28 32.4082 36.7225C32.6674 37.1651 32.7586 37.6861 32.6654 38.1905C32.1349 41.2432 32.8029 44.3828 34.5301 46.9552L35.0752 47.7726L35.3758 48.2307C35.5286 48.4635 35.6341 48.7241 35.6861 48.9976C35.7382 49.2711 35.7359 49.5522 35.6793 49.8249C35.6227 50.0975 35.513 50.3563 35.3564 50.5865C35.1998 50.8168 34.9994 51.0139 34.7666 51.1667L34.6011 51.2753Z" fill="#85B200"/>
<path d="M51.0641 43.2131H50.8702C50.3079 43.2131 49.7686 42.9898 49.371 42.5921C48.9734 42.1945 48.75 41.6552 48.75 41.0929V32.6082C48.7451 27.7399 49.9866 22.9514 52.3563 18.6988C52.4984 18.4418 52.6922 18.217 52.9254 18.0386C53.1587 17.8603 53.4264 17.7322 53.7116 17.6624C53.9968 17.5927 54.2934 17.5828 54.5827 17.6333C54.8719 17.6839 55.1476 17.7939 55.3922 17.9563L55.5544 18.0644C55.9986 18.3624 56.314 18.8169 56.4378 19.3372C56.5615 19.8575 56.4846 20.4053 56.2222 20.8713C54.226 24.4608 53.1803 28.501 53.1844 32.6082V41.0929C53.1844 41.6552 52.961 42.1945 52.5634 42.5921C52.1657 42.9898 51.6264 43.2131 51.0641 43.2131Z" fill="#85B200"/>
<path d="M67.6845 34.6407L67.5007 34.5794C67.2365 34.4914 66.9923 34.3522 66.7819 34.1698C66.5716 33.9873 66.3992 33.7653 66.2747 33.5162C66.1501 33.2672 66.0759 32.996 66.0561 32.7183C66.0364 32.4406 66.0715 32.1617 66.1596 31.8975L66.6046 30.5624C67.9599 26.53 70.8352 23.1856 74.6187 21.2407C74.8908 21.1015 75.1898 21.0227 75.4952 21.0097C75.8007 20.9968 76.1053 21.05 76.3882 21.1657C76.6712 21.2814 76.9258 21.4569 77.1346 21.6801C77.3434 21.9034 77.5015 22.1691 77.5981 22.4592L77.6594 22.6429C77.8173 23.1287 77.7961 23.6549 77.5997 24.1265C77.4032 24.598 77.0445 24.9836 76.5884 25.2136C73.8613 26.6312 71.7904 29.0513 70.8113 31.9647L70.3663 33.2997C70.1885 33.8332 69.806 34.2741 69.3031 34.5256C68.8002 34.7771 68.218 34.8185 67.6845 34.6407Z" fill="#85B200"/>
<path d="M128.57 0L114.871 19.076C110.191 25.5927 104.027 30.9015 96.8886 34.5633C89.7502 38.225 81.8425 40.1345 73.8196 40.1336C65.092 40.1337 56.5131 42.3939 48.9185 46.6941C41.3238 50.9944 34.9722 57.1881 30.4822 64.6722L19.9285 82.2599L11.0127 97.1205C10.5722 97.855 9.97791 98.4853 9.27059 98.9681C8.56328 99.4509 7.75976 99.7747 6.91532 99.9173C6.07089 100.06 5.2056 100.018 4.37898 99.7939C3.55236 99.5701 2.78405 99.1699 2.12691 98.6207C1.46977 98.0716 0.939398 97.3866 0.572299 96.6129C0.2052 95.8392 0.0100851 94.9951 0.000380687 94.1388C-0.00932368 93.2825 0.166613 92.4342 0.516084 91.6524C0.865555 90.8705 1.38026 90.1737 2.02479 89.6098L15.4941 77.8255L24.6815 60.2849C29.2671 51.5323 36.1602 44.2012 44.6142 39.0858C53.0681 33.9705 62.7606 31.2658 72.6418 31.2649C85.8228 31.2648 98.5512 26.457 108.441 17.7429L128.57 0Z" fill="#85B200"/>
<path d="M19.9285 82.2586L11.0127 97.1192C10.5722 97.8536 9.97791 98.484 9.27059 98.9668C8.56328 99.4496 7.75976 99.7734 6.91532 99.9159C6.07089 100.059 5.2056 100.016 4.37898 99.7926C3.55236 99.5688 2.78405 99.1686 2.12691 98.6194C1.46977 98.0703 0.939398 97.3853 0.572299 96.6116C0.2052 95.8379 0.0100851 94.9938 0.000380687 94.1375C-0.00932368 93.2811 0.166613 92.4329 0.516084 91.651C0.865555 90.8692 1.38026 90.1724 2.02479 89.6085L15.4941 77.8242L19.9285 82.2586Z" fill="#719600"/>
</svg>
